<mxfile host="app.diagrams.net" modified="2023-12-21T09:36:52.388Z" agent="Mozilla/5.0 (Windows NT 10.0; Win64; x64; rv:120.0) Gecko/20100101 Firefox/120.0" version="22.1.11" etag="Wvik-bGN3S_5vVpFsSP1" type="github">
  <diagram name="Page-1" id="-jacAcJ74l8NmiqQcvsL">
    <mxGraphModel>
      <root>
        <mxCell id="0" />
        <mxCell id="1" parent="0" />
      </root>
    </mxGraphModel>
  </diagram>
</mxfile>
